# xmcd
#
# Track frame offsets: 
#        150
#        25169
#        45430
#        67742
#        93283
#        129024
#        150489
#
# Disc length: 2340 seconds
#
# Revision: 1
# Processed by: cddbd v1.5.2PL0 Copyright (c) Steve Scherf et al.
# Submitted via: ExactAudioCopyFreeDBPlugin 1.0
#
DISCID=40092207
DTITLE=Leroy Hutson - Paradise
DYEAR=1982
DGENRE=Soul
TTITLE0=Classy Lady
TTITLE1=Nice And Easy
TTITLE2=You Make It Happen
TTITLE3=Paradise
TTITLE4=She's Got It
TTITLE5=Nobody But You
TTITLE6=Stay At It
EXTD=
EXTT0=
EXTT1=
EXTT2=
EXTT3=
EXTT4=
EXTT5=
EXTT6=
PLAYORDER=
